<svg width="250" height="100" viewBox="0 0 250 100" fill="none" xmlns="http://www.w3.org/2000/svg">
<path d="M35.8274 31.5036C26.5963 58.8641 36.4137 81.2424 36.4137 81.2424L26.0098 79.3344C22.3229 56.5151 27.3822 41.7518 30.137 34.2778L35.8274 31.5036ZM24.0333 22.3159C23.3412 22.9907 22.6442 23.7028 22.081 24.4776C18.6261 28.7616 16.5724 34.1731 16.2234 39.912C15.8745 45.6508 17.2489 51.4123 20.1435 56.3444C19.1567 52.1649 19.1027 47.8202 19.9859 43.6722C20.8691 39.5242 22.6639 35.6931 25.2208 32.4981C25.5617 32.0643 25.9275 31.7114 26.2636 31.3149C28.6497 28.6885 31.5299 26.6425 34.7215 25.3069C39.4907 27.9361 43.4061 32.111 45.9019 37.2285C48.3977 42.346 49.3448 48.1409 48.6062 53.7761C48.2448 56.5349 47.5165 59.112 46.5006 61.4454C50.0966 57.5003 52.4178 52.396 53.1351 46.8565C54.2829 38.0952 51.3453 29.6155 45.9113 23.6558C50.9936 24.1679 56.178 26.3403 60.4197 30.287C62.3696 32.2099 64.0127 34.3056 65.3491 36.5741C64.0913 31.2658 61.378 26.225 57.2702 22.3411C52.5273 17.8825 46.7832 15.6456 40.9785 15.4973C42.6739 13.6702 44.6667 12.0123 46.9771 10.6416C49.1936 9.44468 51.5445 8.57777 53.9506 8.10276C48.9372 7.33604 43.7186 8.13516 38.9988 10.8201C36.5844 12.1717 34.572 13.9788 32.8918 15.9613C32.545 15.8977 32.2377 15.8032 31.8909 15.7396C20.7934 13.7043 10.3646 19.8473 5.8221 30.124C8.1608 27.5241 10.9851 25.4889 14.1185 24.1454C17.252 22.8019 20.6272 22.1791 24.0333 22.3159V22.3159Z" fill="black"/>
<path d="M41.6505 77.7063C40.7385 77.7063 40.0905 77.2263 39.7065 76.2663C39.3465 75.3063 39.1665 73.7703 39.1665 71.6583C39.1665 68.5383 39.6105 65.5743 40.4985 62.7663C40.7145 62.0703 41.0625 61.5663 41.5425 61.2543C42.0465 60.9183 42.7425 60.7503 43.6305 60.7503C44.1105 60.7503 44.4465 60.8103 44.6385 60.9303C44.8305 61.0503 44.9265 61.2783 44.9265 61.6143C44.9265 61.9983 44.7465 62.8623 44.3865 64.2063C44.1465 65.1663 43.9545 66.0063 43.8105 66.7263C43.6665 67.4463 43.5465 68.3343 43.4505 69.3903C44.2425 67.3263 45.1305 65.6463 46.1145 64.3503C47.0985 63.0543 48.0585 62.1303 48.9945 61.5783C49.9545 61.0263 50.8305 60.7503 51.6225 60.7503C53.1825 60.7503 53.9625 61.5303 53.9625 63.0903C53.9625 63.4023 53.8545 64.1583 53.6385 65.3583C53.4465 66.3183 53.3505 66.9183 53.3505 67.1583C53.3505 67.9983 53.6505 68.4183 54.2505 68.4183C54.9225 68.4183 55.7865 67.8903 56.8425 66.8343C57.1545 66.5223 57.4785 66.3663 57.8145 66.3663C58.1265 66.3663 58.3665 66.5103 58.5345 66.7983C58.7265 67.0623 58.8225 67.4223 58.8225 67.8783C58.8225 68.7663 58.5825 69.4623 58.1025 69.9663C57.4305 70.6623 56.6385 71.2623 55.7265 71.7663C54.8385 72.2463 53.8905 72.4863 52.8825 72.4863C51.6105 72.4863 50.6385 72.1623 49.9665 71.5143C49.3185 70.8663 48.9945 69.9903 48.9945 68.8863C48.9945 68.5263 49.0305 68.1663 49.1025 67.8063C49.1505 67.3263 49.1745 67.0023 49.1745 66.8343C49.1745 66.4503 49.0425 66.2583 48.7785 66.2583C48.4185 66.2583 47.9385 66.6663 47.3385 67.4823C46.7625 68.2743 46.1865 69.3303 45.6105 70.6503C45.0345 71.9703 44.5665 73.3623 44.2065 74.8263C43.9425 75.9543 43.6305 76.7223 43.2705 77.1303C42.9345 77.5143 42.3945 77.7063 41.6505 77.7063ZM59.9054 77.7063C58.4174 77.7063 57.2294 77.1663 56.3414 76.0863C55.4534 75.0063 55.0094 73.5903 55.0094 71.8383C55.0094 69.9183 55.4534 68.1063 56.3414 66.4023C57.2294 64.6743 58.4054 63.2943 59.8694 62.2623C61.3574 61.2063 62.9294 60.6783 64.5854 60.6783C65.1134 60.6783 65.4614 60.7863 65.6294 61.0023C65.8214 61.1943 65.9774 61.5543 66.0974 62.0823C66.6014 61.9863 67.1294 61.9383 67.6814 61.9383C68.8574 61.9383 69.4454 62.3583 69.4454 63.1983C69.4454 63.7023 69.2654 64.9023 68.9054 66.7983C68.3534 69.5583 68.0774 71.4783 68.0774 72.5583C68.0774 72.9183 68.1614 73.2063 68.3294 73.4223C68.5214 73.6383 68.7614 73.7463 69.0494 73.7463C69.5054 73.7463 70.0574 73.4583 70.7054 72.8823C71.3534 72.2823 72.2294 71.3223 73.3334 70.0023C73.6214 69.6663 73.9454 69.4983 74.3054 69.4983C74.6174 69.4983 74.8574 69.6423 75.0254 69.9303C75.2174 70.2183 75.3134 70.6143 75.3134 71.1183C75.3134 72.0783 75.0854 72.8223 74.6294 73.3503C73.6454 74.5743 72.6014 75.6063 71.4974 76.4463C70.3934 77.2863 69.3254 77.7063 68.2934 77.7063C67.5014 77.7063 66.7694 77.4423 66.0974 76.9143C65.4494 76.3623 64.9574 75.6183 64.6214 74.6823C63.3734 76.6983 61.8014 77.7063 59.9054 77.7063ZM61.2014 74.0703C61.7294 74.0703 62.2334 73.7583 62.7134 73.1343C63.1934 72.5103 63.5414 71.6823 63.7574 70.6503L65.0894 64.0263C64.0814 64.0503 63.1454 64.4343 62.2814 65.1783C61.4414 65.8983 60.7694 66.8583 60.2654 68.0583C59.7614 69.2583 59.5094 70.5303 59.5094 71.8743C59.5094 72.6183 59.6534 73.1703 59.9414 73.5303C60.2534 73.8903 60.6734 74.0703 61.2014 74.0703ZM90.5591 66.5823C90.6311 66.5583 90.7511 66.5463 90.9191 66.5463C91.2791 66.5463 91.5551 66.6663 91.7471 66.9063C91.9391 67.1463 92.0351 67.4703 92.0351 67.8783C92.0351 68.6223 91.8911 69.2103 91.6031 69.6423C91.3151 70.0503 90.8831 70.3503 90.3071 70.5423C89.2031 70.9023 88.0271 71.0823 86.7791 71.0823C85.7231 71.0823 84.7271 70.9383 83.7911 70.6503C83.0951 71.7783 82.3271 72.9423 81.4871 74.1423C80.5271 75.5103 79.6991 76.4463 79.0031 76.9503C78.3071 77.4543 77.5151 77.7063 76.6271 77.7063C75.6431 77.7063 74.8631 77.3223 74.2871 76.5543C73.7351 75.7863 73.3871 74.5743 73.2431 72.9183C72.9551 69.5583 72.8111 66.6183 72.8111 64.0983V62.8383C72.8351 62.0463 73.0511 61.4943 73.4591 61.1823C73.8671 60.8703 74.4791 60.7143 75.2951 60.7143C75.9191 60.7143 76.3751 60.8583 76.6631 61.1463C76.9751 61.4103 77.1311 61.8663 77.1311 62.5143C77.1311 65.2743 77.2991 68.8623 77.6351 73.2783C79.0751 71.1423 80.1551 69.4383 80.8751 68.1663C80.5151 67.4703 80.3351 66.6423 80.3351 65.6823C80.3351 64.8663 80.5151 64.0743 80.8751 63.3063C81.2351 62.5383 81.7271 61.9143 82.3511 61.4343C82.9751 60.9543 83.6831 60.7143 84.4751 60.7143C85.1711 60.7143 85.7351 60.9663 86.1671 61.4703C86.5991 61.9503 86.8151 62.6583 86.8151 63.5943C86.8151 64.6743 86.5271 65.9103 85.9511 67.3023C86.8631 67.2543 88.0751 67.0743 89.5871 66.7623L90.5591 66.5823ZM104.967 69.4983C105.279 69.4983 105.519 69.6423 105.687 69.9303C105.879 70.2183 105.975 70.6143 105.975 71.1183C105.975 72.0783 105.747 72.8223 105.291 73.3503C104.403 74.4303 103.143 75.4263 101.511 76.3383C99.903 77.2503 98.175 77.7063 96.327 77.7063C93.807 77.7063 91.851 77.0223 90.459 75.6543C89.067 74.2863 88.371 72.4143 88.371 70.0383C88.371 68.3823 88.719 66.8463 89.415 65.4303C90.111 63.9903 91.071 62.8503 92.295 62.0103C93.543 61.1703 94.947 60.7503 96.507 60.7503C97.899 60.7503 99.015 61.1703 99.855 62.0103C100.695 62.8263 101.115 63.9423 101.115 65.3583C101.115 67.0143 100.515 68.4423 99.315 69.6423C98.139 70.8183 96.135 71.7543 93.303 72.4503C93.903 73.5543 95.043 74.1063 96.723 74.1063C97.803 74.1063 99.027 73.7343 100.395 72.9903C101.787 72.2223 102.987 71.2263 103.995 70.0023C104.283 69.6663 104.607 69.4983 104.967 69.4983ZM95.895 64.2783C95.007 64.2783 94.251 64.7943 93.627 65.8263C93.027 66.8583 92.727 68.1063 92.727 69.5703V69.6423C94.143 69.3063 95.259 68.8023 96.075 68.1303C96.891 67.4583 97.299 66.6783 97.299 65.7903C97.299 65.3343 97.167 64.9743 96.903 64.7103C96.663 64.4223 96.327 64.2783 95.895 64.2783ZM116.688 69.4983C117 69.4983 117.24 69.6423 117.408 69.9303C117.6 70.2183 117.696 70.6143 117.696 71.1183C117.696 72.0783 117.468 72.8223 117.012 73.3503C115.98 74.6223 114.852 75.6663 113.628 76.4823C112.428 77.2983 111.06 77.7063 109.524 77.7063C107.412 77.7063 105.84 76.7463 104.808 74.8263C103.8 72.9063 103.296 70.4223 103.296 67.3743C103.296 64.4463 103.668 61.1103 104.412 57.3663C105.18 53.6223 106.296 50.4063 107.76 47.7183C109.248 45.0303 111.012 43.6863 113.052 43.6863C114.204 43.6863 115.104 44.2263 115.752 45.3063C116.424 46.3623 116.76 47.8863 116.76 49.8783C116.76 52.7343 115.968 56.0463 114.384 59.8143C112.8 63.5823 110.652 67.3143 107.94 71.0103C108.108 71.9943 108.384 72.7023 108.768 73.1343C109.152 73.5423 109.656 73.7463 110.28 73.7463C111.264 73.7463 112.128 73.4703 112.872 72.9183C113.616 72.3423 114.564 71.3703 115.716 70.0023C116.004 69.6663 116.328 69.4983 116.688 69.4983ZM112.26 47.2503C111.708 47.2503 111.084 48.2463 110.388 50.2383C109.692 52.2303 109.08 54.7023 108.552 57.6543C108.024 60.6063 107.736 63.4383 107.688 66.1503C109.392 63.3423 110.748 60.5343 111.756 57.7263C112.764 54.8943 113.268 52.3143 113.268 49.9863C113.268 48.1623 112.932 47.2503 112.26 47.2503ZM124.83 77.8143C121.638 77.8143 119.082 77.2143 117.162 76.0143C115.242 74.7903 114.282 72.9303 114.282 70.4343C114.282 69.1143 114.51 68.1063 114.966 67.4103C115.422 66.7143 116.094 66.3663 116.982 66.3663C117.63 66.3663 118.158 66.5343 118.566 66.8703C118.974 67.2063 119.178 67.6383 119.178 68.1663C119.178 68.6463 119.142 69.0663 119.07 69.4263C119.07 69.5223 119.046 69.6903 118.998 69.9303C118.974 70.1703 118.962 70.4223 118.962 70.6863C118.962 71.7663 119.502 72.5703 120.582 73.0983C121.686 73.6263 123.222 73.8903 125.19 73.8903C127.23 73.8903 128.826 73.5303 129.978 72.8103C131.13 72.0663 131.706 71.0343 131.706 69.7143C131.706 68.8983 131.442 68.2023 130.914 67.6263C130.386 67.0263 129.726 66.5343 128.934 66.1503C128.142 65.7423 127.026 65.2503 125.586 64.6743C123.738 63.9543 122.226 63.2703 121.05 62.6223C119.898 61.9743 118.902 61.0983 118.062 59.9943C117.246 58.8663 116.838 57.4743 116.838 55.8183C116.838 54.0903 117.294 52.5543 118.206 51.2103C119.142 49.8663 120.474 48.8223 122.202 48.0783C123.954 47.3343 126.006 46.9623 128.358 46.9623C130.11 46.9623 131.718 47.2263 133.182 47.7543C134.646 48.2583 135.81 49.0383 136.674 50.0943C137.562 51.1503 138.006 52.4463 138.006 53.9823C138.006 55.4943 137.778 56.6343 137.322 57.4023C136.866 58.1703 136.194 58.5543 135.306 58.5543C134.682 58.5543 134.154 58.3623 133.722 57.9783C133.314 57.5943 133.11 57.1383 133.11 56.6103C133.11 56.1543 133.146 55.7343 133.218 55.3503C133.29 54.6303 133.326 54.1743 133.326 53.9823C133.326 52.9743 132.834 52.2063 131.85 51.6783C130.866 51.1503 129.642 50.8863 128.178 50.8863C126.114 50.8863 124.53 51.2703 123.426 52.0383C122.346 52.7823 121.806 53.8383 121.806 55.2063C121.806 56.1183 122.082 56.8983 122.634 57.5463C123.21 58.1943 123.918 58.7343 124.758 59.1663C125.598 59.5983 126.774 60.1143 128.286 60.7143C130.11 61.4583 131.574 62.1303 132.678 62.7303C133.782 63.3303 134.718 64.1463 135.486 65.1783C136.278 66.2103 136.674 67.4823 136.674 68.9943C136.674 71.8263 135.594 74.0103 133.434 75.5463C131.298 77.0583 128.43 77.8143 124.83 77.8143ZM158.971 69.4983C159.283 69.4983 159.523 69.6423 159.691 69.9303C159.883 70.2183 159.979 70.6143 159.979 71.1183C159.979 72.0783 159.751 72.8223 159.295 73.3503C158.263 74.6223 157.147 75.6663 155.947 76.4823C154.771 77.2983 153.427 77.7063 151.915 77.7063C150.643 77.7063 149.611 77.2503 148.819 76.3383C147.451 77.2263 146.023 77.6823 144.535 77.7063C144.223 82.3383 143.515 86.2023 142.411 89.2983C141.307 92.4183 139.687 93.9783 137.551 93.9783C136.255 93.9783 135.295 93.5103 134.671 92.5743C134.047 91.6383 133.735 90.3423 133.735 88.6863C133.735 86.3343 134.275 83.5863 135.355 80.4423C136.435 77.3223 138.103 73.8783 140.359 70.1103C140.359 66.6063 140.335 64.1703 140.287 62.8023C140.263 62.1063 140.539 61.5543 141.115 61.1463C141.691 60.7383 142.411 60.5343 143.275 60.5343C143.779 60.5343 144.139 60.6423 144.355 60.8583C144.595 61.0503 144.727 61.4463 144.751 62.0463C144.751 62.6463 144.763 63.0903 144.787 63.3783C145.555 62.4183 146.311 61.7343 147.055 61.3263C147.799 60.8943 148.591 60.6783 149.431 60.6783C150.775 60.6783 151.867 61.2183 152.707 62.2983C153.571 63.3783 154.003 64.7943 154.003 66.5463C154.003 67.8183 153.799 69.0543 153.391 70.2543C152.983 71.4543 152.419 72.5463 151.699 73.5303C152.203 73.6743 152.623 73.7463 152.959 73.7463C153.751 73.7463 154.507 73.4583 155.227 72.8823C155.947 72.3063 156.871 71.3463 157.999 70.0023C158.287 69.6663 158.611 69.4983 158.971 69.4983ZM144.715 74.2503C145.579 74.0583 146.371 73.5903 147.091 72.8463C147.835 72.0783 148.423 71.1423 148.855 70.0383C149.287 68.9103 149.503 67.7343 149.503 66.5103C149.503 65.7903 149.359 65.2503 149.071 64.8903C148.783 64.5063 148.399 64.3143 147.919 64.3143C147.055 64.3143 146.011 65.2263 144.787 67.0503C144.763 68.1063 144.751 69.6543 144.751 71.6943C144.751 72.7983 144.739 73.6503 144.715 74.2503ZM137.839 90.4503C138.487 90.4503 139.027 89.0343 139.459 86.2023C139.891 83.3943 140.167 79.8903 140.287 75.6903C139.255 78.0903 138.439 80.3823 137.839 82.5663C137.239 84.7503 136.939 86.5863 136.939 88.0743C136.939 88.8423 137.035 89.4303 137.227 89.8383C137.395 90.2463 137.599 90.4503 137.839 90.4503ZM161.795 58.3743C160.787 58.3743 160.031 58.1463 159.527 57.6903C159.023 57.2103 158.771 56.5503 158.771 55.7103C158.771 54.8703 159.095 54.1743 159.743 53.6223C160.415 53.0463 161.243 52.7583 162.227 52.7583C163.115 52.7583 163.835 52.9743 164.387 53.4063C164.939 53.8383 165.215 54.4503 165.215 55.2423C165.215 56.2023 164.903 56.9703 164.279 57.5463C163.655 58.0983 162.827 58.3743 161.795 58.3743ZM161.507 77.7063C159.947 77.7063 158.807 77.1543 158.087 76.0503C157.391 74.9463 157.043 73.4823 157.043 71.6583C157.043 70.5783 157.175 69.1983 157.439 67.5183C157.727 65.8143 158.087 64.2303 158.519 62.7663C158.735 61.9983 159.023 61.4703 159.383 61.1823C159.743 60.8943 160.319 60.7503 161.111 60.7503C162.335 60.7503 162.947 61.1583 162.947 61.9743C162.947 62.5743 162.719 63.9663 162.263 66.1503C161.687 68.7903 161.399 70.5783 161.399 71.5143C161.399 72.2343 161.495 72.7863 161.687 73.1703C161.879 73.5543 162.203 73.7463 162.659 73.7463C163.091 73.7463 163.631 73.4463 164.279 72.8463C164.927 72.2463 165.791 71.2983 166.871 70.0023C167.159 69.6663 167.483 69.4983 167.843 69.4983C168.155 69.4983 168.395 69.6423 168.563 69.9303C168.755 70.2183 168.851 70.6143 168.851 71.1183C168.851 72.0783 168.623 72.8223 168.167 73.3503C165.791 76.2543 163.571 77.7063 161.507 77.7063ZM168.494 77.7063C167.582 77.7063 166.934 77.2263 166.55 76.2663C166.19 75.3063 166.01 73.7703 166.01 71.6583C166.01 68.5383 166.454 65.5743 167.342 62.7663C167.558 62.0703 167.906 61.5663 168.386 61.2543C168.89 60.9183 169.586 60.7503 170.474 60.7503C170.954 60.7503 171.29 60.8103 171.482 60.9303C171.674 61.0503 171.77 61.2783 171.77 61.6143C171.77 61.9983 171.59 62.8623 171.23 64.2063C170.99 65.1663 170.798 66.0063 170.654 66.7263C170.51 67.4463 170.39 68.3343 170.294 69.3903C171.086 67.3263 171.974 65.6463 172.958 64.3503C173.942 63.0543 174.902 62.1303 175.838 61.5783C176.798 61.0263 177.674 60.7503 178.466 60.7503C180.026 60.7503 180.806 61.5303 180.806 63.0903C180.806 64.0263 180.542 65.7183 180.014 68.1663C179.558 70.2543 179.33 71.6343 179.33 72.3063C179.33 73.2663 179.678 73.7463 180.374 73.7463C180.854 73.7463 181.418 73.4583 182.066 72.8823C182.738 72.2823 183.626 71.3223 184.73 70.0023C185.018 69.6663 185.342 69.4983 185.702 69.4983C186.014 69.4983 186.254 69.6423 186.422 69.9303C186.614 70.2183 186.71 70.6143 186.71 71.1183C186.71 72.0783 186.482 72.8223 186.026 73.3503C184.994 74.6223 183.878 75.6663 182.678 76.4823C181.502 77.2983 180.158 77.7063 178.646 77.7063C177.422 77.7063 176.498 77.3583 175.874 76.6623C175.25 75.9423 174.938 74.9103 174.938 73.5663C174.938 72.8943 175.106 71.6943 175.442 69.9663C175.754 68.4543 175.91 67.4103 175.91 66.8343C175.91 66.4503 175.778 66.2583 175.514 66.2583C175.202 66.2583 174.758 66.6663 174.182 67.4823C173.63 68.2743 173.054 69.3303 172.454 70.6503C171.878 71.9703 171.41 73.3623 171.05 74.8263C170.786 75.9543 170.474 76.7223 170.114 77.1303C169.778 77.5143 169.238 77.7063 168.494 77.7063ZM196.11 73.6023C196.638 73.5783 197.034 73.7703 197.298 74.1783C197.586 74.5623 197.73 75.0423 197.73 75.6183C197.73 76.2183 197.586 76.7463 197.298 77.2023C197.034 77.6583 196.662 77.8863 196.182 77.8863C195.318 77.8863 194.502 77.8743 193.734 77.8503C192.99 77.8263 192.33 77.8023 191.754 77.7783C189.546 77.6823 187.986 77.6343 187.074 77.6343C186.762 77.6343 186.306 77.7423 185.706 77.9583C184.938 78.1983 184.41 78.3183 184.122 78.3183C182.85 78.3183 182.214 77.5023 182.214 75.8703C182.214 74.7663 182.61 73.5183 183.402 72.1263C184.194 70.7103 185.226 69.3423 186.498 68.0223C187.77 66.7023 189.09 65.5983 190.458 64.7103L185.382 64.8543C184.854 64.8783 184.446 64.6983 184.158 64.3143C183.894 63.9063 183.762 63.4263 183.762 62.8743C183.762 62.2983 183.894 61.7943 184.158 61.3623C184.446 60.9063 184.83 60.6783 185.31 60.6783C186.366 60.6783 187.674 60.7623 189.234 60.9303C189.498 60.9543 190.062 61.0023 190.926 61.0743C191.814 61.1463 192.63 61.1823 193.374 61.1823C193.614 61.1823 194.07 61.0863 194.742 60.8943C194.862 60.8703 195.09 60.8103 195.426 60.7143C195.786 60.6183 196.086 60.5703 196.326 60.5703C196.71 60.5703 197.022 60.7383 197.262 61.0743C197.526 61.4103 197.658 61.9263 197.658 62.6223C197.658 63.3903 197.466 64.0023 197.082 64.4583C196.722 64.9143 196.17 65.3223 195.426 65.6823C194.586 66.0663 193.602 66.7263 192.474 67.6623C191.346 68.5983 190.278 69.6423 189.27 70.7943C188.262 71.9223 187.518 72.9903 187.038 73.9983L196.11 73.6023Z" fill="black"/>
</svg>
