<svg width="251" height="254" viewBox="0 0 251 254" fill="none" xmlns="http://www.w3.org/2000/svg">
<g clip-path="url(#clip0)">
<path d="M110.129 131.441C111.344 126.387 112.76 121.384 114.373 116.443C119.39 101.235 126.17 86.6662 134.574 73.0345C139.502 65.0937 143.074 60.6743 143.074 60.6743L166.288 67.8107C166.288 67.8107 162.567 73.0569 157.681 83.7511C155.698 88.0916 153.525 93.3463 151.319 99.5357C150.202 102.658 149.087 105.998 147.982 109.603C146.444 114.622 144.939 120.12 143.517 126.078C142.709 129.444 141.943 132.965 141.205 136.633C140.935 137.966 140.654 139.251 140.397 140.627C139.607 144.989 139.116 149.4 138.93 153.829C138.739 157.855 138.776 161.899 138.956 165.935C139.215 171.63 139.753 177.309 140.567 182.952C141.189 187.249 141.933 191.526 142.795 195.781C144.051 202.023 145.421 207.676 146.633 212.396C148.67 220.315 150.255 225.62 150.081 226.638C149.528 229.858 146.193 235.495 129.425 236.756C103.201 238.722 102.555 227.944 102.555 227.944C102.555 227.944 101.79 222.821 101.571 212.948C101.46 208.072 101.482 202.076 101.805 194.874C101.997 190.564 102.3 185.841 102.732 180.72C103.656 169.935 105.003 159.191 106.772 148.513C107.037 146.894 107.266 145.323 107.551 143.661C108.273 139.456 109.17 135.409 110.129 131.441V131.441Z" fill="#C1694F"/>
<path d="M123.38 198.949C132.873 198.928 139.215 197.25 142.787 195.793C144.042 202.035 145.412 207.688 146.625 212.408C140.043 214.654 131.955 215.944 123.416 215.96C118.483 215.972 113.66 215.578 109.199 214.812C106.478 214.345 103.96 213.689 101.562 212.96C101.452 208.084 101.473 202.088 101.796 194.886C104.536 196.418 111.565 198.977 123.38 198.949V198.949ZM121.685 167.049C128.988 167.572 134.785 166.944 138.955 165.941C139.214 171.637 139.751 177.316 140.566 182.959C134.521 184.127 127.574 184.524 120.464 184.014C117.598 183.806 114.774 183.47 112.047 183.002C108.749 182.436 105.665 181.643 102.73 180.733C103.186 175.4 103.789 169.639 104.584 163.431C108.558 165.026 114.262 166.512 121.685 167.049V167.049ZM122.06 152.686C116.659 151.759 111.444 150.302 106.771 148.519C107.035 146.901 107.264 145.33 107.55 143.668C108.273 139.456 109.164 135.408 110.129 131.441C113.449 132.944 118.265 134.677 125.26 135.973C132.388 137.162 137.571 137.037 141.204 136.639C140.934 137.973 140.653 139.257 140.396 140.634C139.605 144.995 139.115 149.407 138.929 153.836C133.734 154.033 128.098 153.688 122.469 152.749L122.06 152.686V152.686ZM128.858 122.893C123.831 121.227 118.982 119.069 114.379 116.451C116.16 111.047 118.169 105.72 120.4 100.486C123.429 102.385 127.792 104.67 134.085 106.704C138.588 108.218 143.255 109.194 147.987 109.611C146.449 114.629 144.944 120.127 143.522 126.086C142.517 125.954 141.584 125.95 140.559 125.774C136.695 125.117 132.723 124.138 128.858 122.893ZM126.276 87.8442C128.835 82.7936 131.606 77.853 134.581 73.0357C137.922 75.4773 141.496 77.5837 145.251 79.3246C149.226 81.2422 153.395 82.7266 157.688 83.7522C155.705 88.0927 153.531 93.3474 151.326 99.5369C146.751 98.3105 142.29 96.6939 137.991 94.7048C133.742 92.7038 129.88 90.3364 126.276 87.8442Z" fill="#D99E82"/>
<path d="M58.4482 13.5395C58.8061 13.1883 94.6441 -20.7923 129.515 2.80651C145.157 13.3851 153.953 27.794 155.146 44.6454C164.307 35.6114 176.667 30.989 191.958 30.8875C233.936 30.6113 250.666 79.9795 250.83 80.4812C251.07 81.2123 250.776 82.0208 250.118 82.4221C249.461 82.8233 248.601 82.7096 248.058 82.1699C247.896 82.0069 231.605 65.8651 199.801 66.0611C167.292 66.2581 144.228 67.9814 143.996 67.9957C143.697 68.0159 143.398 67.9567 143.13 67.8239C142.862 67.6911 142.633 67.4895 142.468 67.2397C142.298 66.9737 125.213 40.8741 107.438 28.8473C81.1397 11.0691 60.2291 16.287 60.0304 16.3408C59.6733 16.4328 59.2958 16.4047 58.9562 16.2608C58.6166 16.117 58.3337 15.8654 58.1513 15.5448C57.9689 15.2257 57.899 14.8545 57.9528 14.4908C58.0066 14.1271 58.1811 13.7921 58.4482 13.5395V13.5395Z" fill="#3E721D"/>
<path d="M85.751 40.7164C117.32 30.3878 138.669 41.7293 151.176 53.4337C168.644 53.1378 199.882 58.6887 220.536 97.1772C246.074 144.763 208.422 192.109 208.036 192.584C207.722 192.967 207.301 193.248 206.827 193.391C206.353 193.535 205.848 193.535 205.374 193.391C204.9 193.248 204.479 192.967 204.164 192.584C203.85 192.202 203.656 191.735 203.606 191.242C203.569 190.871 199.798 153.251 179.864 118.728C169.052 99.9885 155.388 82.0182 145.567 69.9563C133.653 69.9273 116.068 71.2989 97.9298 77.7029C62.2256 90.3318 41.9784 118.601 41.7743 118.884C41.4778 119.31 41.0549 119.633 40.5652 119.806C40.0755 119.979 39.5437 119.994 39.045 119.849C38.5479 119.706 38.1072 119.413 37.7829 119.01C37.4586 118.607 37.2667 118.113 37.2332 117.597C37.201 116.996 34.2264 57.5564 85.751 40.7164V40.7164Z" fill="#5C913B"/>
</g>
<defs>
<clipPath id="clip0">
<rect width="240" height="240" fill="white" transform="matrix(-0.985588 -0.169162 -0.169162 0.985588 277.57 22.0288)"/>
</clipPath>
</defs>
</svg>
