<svg width="145" height="152" viewBox="0 0 145 152" fill="none" xmlns="http://www.w3.org/2000/svg">
<path d="M75.1703 55.9152C55.7166 104.309 76.1344 143.982 76.1344 143.982L54.3817 140.549C46.7899 100.127 57.4507 74.0153 63.2526 60.797L75.1703 55.9152ZM50.5481 39.586C49.0968 40.7771 47.635 42.0342 46.4529 43.403C39.2034 50.9698 34.8789 60.5402 34.1187 70.6991C33.3586 80.8579 36.2032 91.066 42.2319 99.8137C40.1899 92.4086 40.0998 84.7159 41.9691 77.3765C43.8384 70.037 47.613 63.2635 52.9783 57.6201C53.6938 56.8538 54.4609 56.231 55.1659 55.5308C60.171 50.8932 66.2066 47.2859 72.8898 44.9379C82.852 49.6181 91.0201 57.0306 96.2138 66.1044C101.408 75.1781 103.358 85.4432 101.783 95.4165C101.013 100.299 99.4758 104.858 97.3383 108.984C104.881 102.018 109.764 92.9931 111.293 83.1891C113.74 67.6831 107.64 52.654 96.3051 42.0736C106.933 43.0071 117.767 46.8809 126.619 53.8909C130.687 57.3057 134.113 61.0249 136.897 65.0484C134.294 55.6432 128.645 46.7041 120.072 39.8058C110.175 31.8869 98.1711 27.896 86.0297 27.6028C89.5857 24.377 93.7631 21.452 98.6031 19.0374C103.246 16.9299 108.168 15.4074 113.204 14.5791C102.721 13.1951 91.8004 14.5825 81.9133 19.3114C76.8558 21.6916 72.6368 24.8805 69.1116 28.3817C68.3865 28.2673 67.7443 28.0983 67.0193 27.9839C43.8164 24.322 21.9692 35.1432 12.413 53.3144C17.3188 48.7236 23.2374 45.135 29.7989 42.7729C36.3605 40.4108 43.424 39.3259 50.5481 39.586V39.586Z" fill="black"/>
</svg>
